<?xml version="1.0" standalone="no"?><!DOCTYPE svg PUBLIC "-//W3C//DTD SVG 1.1//EN" "http://www.w3.org/Graphics/SVG/1.1/DTD/svg11.dtd"><svg t="1743867799586" class="icon" viewBox="0 0 1024 1024" version="1.1" xmlns="http://www.w3.org/2000/svg" p-id="4312" xmlns:xlink="http://www.w3.org/1999/xlink" width="200" height="200"><path d="M970.752 770.048l-362.496-606.208c-53.248-88.064-137.216-88.064-190.464 0l-362.496 606.208c-53.248 88.064-12.288 157.696 90.112 157.696h737.28c100.352 0 139.264-71.68 88.064-157.696z m-446.464 34.816c0 12.288-10.24 22.528-22.528 22.528s-22.528-10.24-22.528-22.528v-61.44c0-12.288 10.24-22.528 22.528-22.528s22.528 10.24 22.528 22.528v61.44z m0-163.84c0 12.288-10.24 22.528-22.528 22.528s-22.528-10.24-22.528-22.528v-307.2c0-12.288 10.24-22.528 22.528-22.528s22.528 10.24 22.528 22.528v307.2z" fill="#ffffff" p-id="4313" data-spm-anchor-id="a313x.search_index.0.i8.60803a81XYL8WE" class="selected"></path></svg>